<?xml version="1.0" encoding="UTF-8"?> <!-- Generator: Adobe Illustrator 21.0.0, SVG Export Plug-In . SVG Version: 6.00 Build 0) --> <svg xmlns="http://www.w3.org/2000/svg" xmlns:xlink="http://www.w3.org/1999/xlink" id="Слой_1" x="0px" y="0px" viewBox="0 0 841.9 134.1" style="enable-background:new 0 0 841.9 134.1;" xml:space="preserve"> <style type="text/css"> .st0{fill:#2D2D2D;} .st1{fill:#FFFFFF;} </style> <g> <polygon class="st0" points="119.3,20.9 108.2,36.9 119.3,36.9 119.3,111 30,111 30,20.8 66.9,20.8 66.9,30.2 76.3,20.8 119.3,20.8 "></polygon> <g> <path class="st0" d="M177.3,71.8c15.2,4.5,22.8,17,22.8,37.6h-14.2c0-10-2.3-17.7-6.9-23c-4.6-5.4-10.4-8-17.5-8h-10v31h-14.1 V36.9h14.1V66h9.2c6.3,0,11.9-2.9,16.8-8.8c4.9-5.9,7.4-12.6,7.4-20.3H199c0,8.1-2,15.3-5.9,21.5C189.3,64.6,184,69.1,177.3,71.8z "></path> <path class="st0" d="M255.7,109.4l-7-20.2h-26.3l-7,20.2H200l27.4-72.5h15.8l27.5,72.5H255.7z M226,76.9h18.4l-8.9-25.5L226,76.9z "></path> <path class="st0" d="M335.2,36.9v72.5H321V49.2h-36.6v60.1h-14.1V36.9H335.2z"></path> <path class="st0" d="M389.8,36.9h15.9v72.5h-13.6V54.9L357,109.4h-15.7V36.9h13.6V91L389.8,36.9z"></path> <path class="st0" d="M470.8,36.9v12.3h-24.6v60.1h-13.5V49.2H408V36.9H470.8z"></path> <path class="st0" d="M571.1,36.9c-9.7,0-17.2,2.4-22.5,7.2c-5.3,4.8-7.9,11.6-7.9,20.3v19.3c0,4.3-0.9,7.5-2.7,9.8 c-1.8,2.3-4.4,3.4-7.8,3.4h-0.9l-22.9-60.1h-15.8l-27.4,72.5h15.3l7-20.2h26.3l7,20.2h7.3h4h1.1c0.1,0,0.3,0,0.4,0 c7.6-0.2,13.4-2.3,17.2-6.2c4-4.2,6-10.6,6-19.3V64.5c0-4.8,1.4-8.6,4.2-11.2c2.8-2.7,6.8-4,12-4h14.1l0.2,60h14.1V36.9H571.1z M489.2,76.9l9.5-25.5l8.9,25.5H489.2z"></path> <path class="st0" d="M630.8,57.8c9.5,0,17,2.4,22.6,7.1c5.6,4.7,8.4,10.9,8.4,18.7c0,7.8-2.9,14.1-8.6,18.8 c-5.8,4.7-13.5,7.1-23.1,7.1h-24.6V36.9h13.9v20.9H630.8z M629.4,96.8c5.7,0,10.2-1.2,13.5-3.7s5-5.8,5-10c0-3.9-1.5-7.1-4.6-9.5 c-3.1-2.4-7.2-3.6-12.4-3.6h-11.5v26.9H629.4z"></path> <path class="st0" d="M714.7,36.9h14.1v72.5h-14.1v-31h-37.8v31h-14.1V36.9h14.1V66h37.8V36.9z"></path> <path class="st0" d="M796.1,100.4c-7.2,7.1-16.5,10.6-27.8,10.6c-11.3,0-20.5-3.5-27.8-10.6c-7.2-7.1-10.9-16.2-10.9-27.3 c0-11.1,3.6-20.2,10.9-27.3c7.2-7.1,16.5-10.6,27.9-10.6c11.3,0,20.5,3.5,27.7,10.6C803.4,52.9,807,62,807,73.1 C807,84.2,803.4,93.3,796.1,100.4z M750.9,91.2c4.5,4.7,10.4,7.1,17.5,7.1c7.1,0,12.9-2.4,17.4-7.1c4.5-4.7,6.8-10.7,6.8-18.1 c0-7.4-2.3-13.5-6.8-18.2c-4.5-4.7-10.4-7.1-17.6-7.1c-7,0-12.8,2.4-17.3,7.1c-4.5,4.7-6.8,10.8-6.8,18.2 C744.1,80.4,746.4,86.5,750.9,91.2z"></path> </g> </g> </svg> 